<?xml version="1.0" encoding="UTF-8"?>
<!DOCTYPE svg PUBLIC "-//W3C//DTD SVG 1.1//EN" "http://www.w3.org/Graphics/SVG/1.1/DTD/svg11.dtd">
<svg xmlns="http://www.w3.org/2000/svg" style="background-color: rgb(255, 255, 255);" xmlns:xlink="http://www.w3.org/1999/xlink" version="1.1" width="215px" height="223px" viewBox="-0.5 -0.5 215 223"><defs/><g><rect x="0.07" y="-0.45" width="201.17" height="201.17" fill="#232f3e" stroke="none" pointer-events="all"/><rect x="38.69" y="99.93" width="7.84" height="39.22" rx="3.92" ry="3.92" fill="#ffffff" stroke="none" pointer-events="all"/><rect x="54.37" y="78.36" width="7.84" height="78.43" rx="3.92" ry="3.92" fill="#ffffff" stroke="none" pointer-events="all"/><rect x="70.06" y="99.93" width="7.84" height="39.22" rx="3.92" ry="3.92" fill="#ffffff" stroke="none" pointer-events="all"/><rect x="85.75" y="107.77" width="7.84" height="19.61" rx="3.92" ry="3.92" fill="#ffffff" stroke="none" pointer-events="all"/><rect x="23" y="107.77" width="7.84" height="19.61" rx="3.92" ry="3.92" fill="#ffffff" stroke="none" pointer-events="all"/><rect x="101.43" y="101.89" width="7.84" height="39.22" rx="3.92" ry="3.92" fill="#ffffff" stroke="none" pointer-events="all"/><rect x="117.12" y="80.32" width="7.84" height="78.43" rx="3.92" ry="3.92" fill="#ffffff" stroke="none" pointer-events="all"/><rect x="132.8" y="101.89" width="7.84" height="39.22" rx="3.92" ry="3.92" fill="#ffffff" stroke="none" pointer-events="all"/><rect x="148.49" y="109.74" width="7.84" height="19.61" rx="3.92" ry="3.92" fill="#ffffff" stroke="none" pointer-events="all"/><ellipse cx="105.35" cy="41.11" rx="19.606843572680607" ry="19.606843572680607" fill="transparent" stroke="#ffffff" pointer-events="all"/><path d="M 105.35 60.71 L 105.35 21.5" fill="none" stroke="#ffffff" stroke-miterlimit="10" pointer-events="stroke"/><path d="M 105.35 41.11 L 85.75 41.11" fill="none" stroke="#ffffff" stroke-miterlimit="10" pointer-events="stroke"/><rect x="136.73" y="54.83" width="7.84" height="39.22" fill="none" stroke="#ffffff" pointer-events="all"/><rect x="154.37" y="43.07" width="7.84" height="50.98" fill="none" stroke="#ffffff" pointer-events="all"/><rect x="170.06" y="62.68" width="7.84" height="31.37" fill="none" stroke="#ffffff" pointer-events="all"/></g></svg>